<?xml version="1.0" encoding="UTF-8" standalone="no"?>
<!-- Created with Inkscape (http://www.inkscape.org/) -->

<svg
   version="1.1"
   id="svg2"
   width="666.66669"
   height="496.81332"
   viewBox="0 0 666.66669 496.81332"
   sodipodi:docname="3411091.eps"
   xmlns:inkscape="http://www.inkscape.org/namespaces/inkscape"
   xmlns:sodipodi="http://sodipodi.sourceforge.net/DTD/sodipodi-0.dtd"
   xmlns="http://www.w3.org/2000/svg"
   xmlns:svg="http://www.w3.org/2000/svg">
  <defs
     id="defs6" />
  <sodipodi:namedview
     id="namedview4"
     pagecolor="#ffffff"
     bordercolor="#000000"
     borderopacity="0.25"
     inkscape:showpageshadow="2"
     inkscape:pageopacity="0.0"
     inkscape:pagecheckerboard="0"
     inkscape:deskcolor="#d1d1d1" />
  <g
     id="g8"
     inkscape:groupmode="layer"
     inkscape:label="ink_ext_XXXXXX"
     transform="matrix(1.3333333,0,0,-1.3333333,0,496.81333)">
    <g
       id="g10"
       transform="scale(0.1)">
      <path
         d="M 5000,449.129 H 0 v 2.5 h 5000 v -2.5"
         style="fill:#e7e8e5;fill-opacity:1;fill-rule:nonzero;stroke:none"
         id="path12" />
      <path
         d="m 439.152,3723.59 c -30.101,0 -54.582,-24.49 -54.582,-54.57 V 954.699 c 0,-30.097 24.481,-54.578 54.582,-54.578 H 2370.14 c 30.08,0 54.57,24.481 54.57,54.578 V 3669.02 c 0,30.08 -24.49,54.57 -54.57,54.57 H 439.152 M 2370.14,897.621 H 439.152 c -31.476,0 -57.082,25.598 -57.082,57.078 V 3669.02 c 0,31.46 25.606,57.07 57.082,57.07 H 2370.14 c 31.46,0 57.07,-25.61 57.07,-57.07 V 954.699 c 0,-31.48 -25.61,-57.078 -57.07,-57.078"
         style="fill:#e7e8e5;fill-opacity:1;fill-rule:nonzero;stroke:none"
         id="path14" />
      <path
         d="m 2602.12,3723.59 c -30.09,0 -54.57,-24.49 -54.57,-54.57 V 954.699 c 0,-30.097 24.48,-54.578 54.57,-54.578 h 1930.99 c 30.09,0 54.58,24.481 54.58,54.578 V 3669.02 c 0,30.08 -24.49,54.57 -54.58,54.57 H 2602.12 M 4533.11,897.621 H 2602.12 c -31.47,0 -57.07,25.598 -57.07,57.078 V 3669.02 c 0,31.46 25.6,57.07 57.07,57.07 h 1930.99 c 31.47,0 57.08,-25.61 57.08,-57.07 V 954.699 c 0,-31.48 -25.61,-57.078 -57.08,-57.078"
         style="fill:#e7e8e5;fill-opacity:1;fill-rule:nonzero;stroke:none"
         id="path16" />
      <path
         d="M 772.766,353.898 H 512.789 v 2.5 h 259.977 v -2.5"
         style="fill:#e7e8e5;fill-opacity:1;fill-rule:nonzero;stroke:none"
         id="path18" />
      <path
         d="m 1901.8,381.039 h -450.27 v 2.5 h 450.27 v -2.5"
         style="fill:#e7e8e5;fill-opacity:1;fill-rule:nonzero;stroke:none"
         id="path20" />
      <path
         d="M 1390.69,261.039 H 782.77 v 2.5 h 607.92 v -2.5"
         style="fill:#e7e8e5;fill-opacity:1;fill-rule:nonzero;stroke:none"
         id="path22" />
      <path
         d="m 4487.21,277.84 h -192.35 v 2.5 h 192.35 v -2.5"
         style="fill:#e7e8e5;fill-opacity:1;fill-rule:nonzero;stroke:none"
         id="path24" />
      <path
         d="m 4205.83,277.84 h -552.92 v 2.5 h 552.92 v -2.5"
         style="fill:#e7e8e5;fill-opacity:1;fill-rule:nonzero;stroke:none"
         id="path26" />
      <path
         d="m 3315.14,320.059 h -744.68 v 2.5 h 744.68 v -2.5"
         style="fill:#e7e8e5;fill-opacity:1;fill-rule:nonzero;stroke:none"
         id="path28" />
      <path
         d="m 2228.15,451.629 h 420.492 v 1078.89 H 2228.15 Z"
         style="fill:#ededeb;fill-opacity:1;fill-rule:nonzero;stroke:none"
         id="path30" />
      <path
         d="m 723.508,451.629 h 1504.64 v 1078.89 H 723.508 Z"
         style="fill:#f3f2f1;fill-opacity:1;fill-rule:nonzero;stroke:none"
         id="path32" />
      <path
         d="M 815.707,776.41 H 1066.86 V 556.73 H 815.707 v 219.68"
         style="fill:#ffffff;fill-opacity:1;fill-rule:nonzero;stroke:none"
         id="path34" />
      <path
         d="M 815.707,1076.73 H 1066.86 V 857.051 H 815.707 v 219.679"
         style="fill:#e7e8e5;fill-opacity:1;fill-rule:nonzero;stroke:none"
         id="path36" />
      <path
         d="m 719.113,1347.92 h 4.39453 v 28.7695 H 719.113 Z"
         style="fill:#eaebe8;fill-opacity:1;fill-rule:nonzero;stroke:none"
         id="path38" />
      <path
         d="m 2191.08,1347.92 h -681.1 c 1.92,9.08 3.89,18.68 5.91,28.77 h 676.97 l -1.78,-28.77 m -909.2,0 H 723.508 v 28.77 h 562.052 c -1.26,-9.86 -2.48,-19.47 -3.68,-28.77"
         style="fill:#dedfdc;fill-opacity:1;fill-rule:nonzero;stroke:none"
         id="path40" />
      <path
         d="m 2228.15,1376.69 h 443.703 v 174.75 H 2228.15 Z"
         style="fill:#ededeb;fill-opacity:1;fill-rule:nonzero;stroke:none"
         id="path42" />
      <path
         d="m 700.297,1376.69 h 1527.85 v 174.75 H 700.297 Z"
         style="fill:#f3f2f1;fill-opacity:1;fill-rule:nonzero;stroke:none"
         id="path44" />
      <path
         d="m 2162.46,1548.73 h 326.77 v 332.531 h -326.77 z"
         style="fill:#ededeb;fill-opacity:1;fill-rule:nonzero;stroke:none"
         id="path46" />
      <path
         d="m 1024.58,1548.73 h 1137.88 v 332.531 H 1024.58 Z"
         style="fill:#f3f2f1;fill-opacity:1;fill-rule:nonzero;stroke:none"
         id="path48" />
      <path
         d="m 2219.39,1804.26 h -56.93 v 15.56 h 57.9 l -0.97,-15.56"
         style="fill:#d9dad7;fill-opacity:1;fill-rule:nonzero;stroke:none"
         id="path50" />
      <path
         d="m 1021.17,1804.26 h 3.4063 v 15.5586 h -3.4063 z"
         style="fill:#eaebe8;fill-opacity:1;fill-rule:nonzero;stroke:none"
         id="path52" />
      <path
         d="m 2162.46,1804.26 h -572.5 c 0.83,5.2 1.67,10.4 2.49,15.56 h 570.01 v -15.56 m -824.65,0 h -313.23 v 15.56 h 315.09 c -0.62,-5.17 -1.23,-10.35 -1.86,-15.56"
         style="fill:#dedfdc;fill-opacity:1;fill-rule:nonzero;stroke:none"
         id="path54" />
      <path
         d="m 2162.46,1819.82 h 344.809 v 77.6914 H 2162.46 Z"
         style="fill:#ededeb;fill-opacity:1;fill-rule:nonzero;stroke:none"
         id="path56" />
      <path
         d="m 1006.55,1819.82 h 1155.91 v 77.6914 H 1006.55 Z"
         style="fill:#f3f2f1;fill-opacity:1;fill-rule:nonzero;stroke:none"
         id="path58" />
      <path
         d="M 2874.09,451.629 H 3194 v 1618.76 h -319.91 z"
         style="fill:#e2e2e0;fill-opacity:1;fill-rule:nonzero;stroke:none"
         id="path60" />
      <path
         d="m 2942.58,451.629 h -68.49 v 114.793 h 140.31 l -71.82,-114.793"
         style="fill:#ededeb;fill-opacity:1;fill-rule:nonzero;stroke:none"
         id="path62" />
      <path
         d="m 3941.23,451.629 h 319.918 v 1618.76 H 3941.23 Z"
         style="fill:#e2e2e0;fill-opacity:1;fill-rule:nonzero;stroke:none"
         id="path64" />
      <path
         d="M 2874.09,474.82 H 4001.01 V 2070.39 H 2874.09 Z"
         style="fill:#ededeb;fill-opacity:1;fill-rule:nonzero;stroke:none"
         id="path66" />
      <path
         d="m 2927.22,1562.1 h 1020.65 v 437.57 H 2927.22 Z"
         style="fill:#e2e2e0;fill-opacity:1;fill-rule:nonzero;stroke:none"
         id="path68" />
      <path
         d="m 3504.63,1790.21 c 0,-37.05 -30.03,-67.08 -67.08,-67.08 -37.05,0 -67.08,30.03 -67.08,67.08 0,37.04 30.03,67.08 67.08,67.08 37.05,0 67.08,-30.04 67.08,-67.08"
         style="fill:#fafaf9;fill-opacity:1;fill-rule:nonzero;stroke:none"
         id="path70" />
      <path
         d="m 3932.51,451.629 h 68.5 v 114.793 h -140.32 l 71.82,-114.793"
         style="fill:#ededeb;fill-opacity:1;fill-rule:nonzero;stroke:none"
         id="path72" />
      <path
         d="M 2927.22,545.531 H 3947.87 V 1491.39 H 2927.22 Z"
         style="fill:#e2e2e0;fill-opacity:1;fill-rule:nonzero;stroke:none"
         id="path74" />
      <path
         d="m 3873.98,1350.42 c 0,-37.05 -30.03,-67.08 -67.08,-67.08 -37.04,0 -67.08,30.03 -67.08,67.08 0,37.04 30.04,67.08 67.08,67.08 37.05,0 67.08,-30.04 67.08,-67.08"
         style="fill:#fafaf9;fill-opacity:1;fill-rule:nonzero;stroke:none"
         id="path76" />
      <path
         d="m 862.059,2250.59 h 3290.42 V 3560.36 H 862.059 Z"
         style="fill:#e2e2e0;fill-opacity:1;fill-rule:nonzero;stroke:none"
         id="path78" />
      <path
         d="m 847.523,2250.59 h 3290.42 V 3560.36 H 847.523 Z"
         style="fill:#ededeb;fill-opacity:1;fill-rule:nonzero;stroke:none"
         id="path80" />
      <path
         d="m 931.254,2334.33 h 3122.96 v 1142.3 H 931.254 Z"
         style="fill:#ffffff;fill-opacity:1;fill-rule:nonzero;stroke:none"
         id="path82" />
      <path
         d="m 1295.44,3000.64 -109.88,-190.33 h 219.77 z"
         style="fill:#e2e2e0;fill-opacity:1;fill-rule:nonzero;stroke:none"
         id="path84" />
      <path
         d="m 1865.52,2995.21 h -179.45 v -179.46 h 179.45 v 179.46"
         style="fill:#e2e2e0;fill-opacity:1;fill-rule:nonzero;stroke:none"
         id="path86" />
      <path
         d="m 2256.15,3020.25 -120.68,-87.68 46.1,-141.87 h 149.16 l 46.1,141.87 -120.68,87.68"
         style="fill:#e2e2e0;fill-opacity:1;fill-rule:nonzero;stroke:none"
         id="path88" />
      <path
         d="m 2799.95,3015.36 h -126.89 l -63.44,-109.88 63.44,-109.89 h 126.89 l 63.44,109.89 -63.44,109.88"
         style="fill:#e2e2e0;fill-opacity:1;fill-rule:nonzero;stroke:none"
         id="path90" />
      <path
         d="m 3216.86,3026.09 -99.2,-47.78 -24.51,-107.35 68.66,-86.08 h 110.1 l 68.66,86.08 -24.51,107.35 -99.2,47.78"
         style="fill:#e2e2e0;fill-opacity:1;fill-rule:nonzero;stroke:none"
         id="path92" />
      <path
         d="m 3745.77,3022.71 h -97.11 l -68.67,-68.67 v -97.11 l 68.67,-68.68 h 97.11 l 68.67,68.68 v 97.11 l -68.67,68.67"
         style="fill:#e2e2e0;fill-opacity:1;fill-rule:nonzero;stroke:none"
         id="path94" />
      <path
         d="M 4438.89,113.23 C 4438.89,50.6914 3570.83,0 2500,0 1429.18,0 561.109,50.6914 561.109,113.23 c 0,62.54 868.071,113.239 1938.891,113.239 1070.83,0 1938.89,-50.699 1938.89,-113.239"
         style="fill:#f3f2f1;fill-opacity:1;fill-rule:nonzero;stroke:none"
         id="path96" />
      <path
         d="m 2394.08,2980.56 h 1646.54 c 35.13,0 62.08,-28.74 59.9,-63.87 L 3966.29,753.379 C 3964.11,718.25 3933.58,689.5 3898.45,689.5 H 2251.92 c -35.13,0 -62.09,28.75 -59.91,63.879 l 134.24,2163.311 c 2.17,35.13 32.7,63.87 67.83,63.87"
         style="fill:#406fbf;fill-opacity:1;fill-rule:nonzero;stroke:none"
         id="path98" />
      <path
         d="m 3898.45,689.5 h -37.82 c 35.13,0 65.65,28.75 67.84,63.879 L 4062.7,2916.69 c 2.18,35.13 -24.78,63.87 -59.91,63.87 h -532.73 570.56 c 33.82,0 60.07,-26.65 60.03,-59.99 -0.01,-1.28 -0.05,-2.58 -0.13,-3.88 l -41.33,-666.1 -92.9,-1497.211 C 3964.11,718.25 3933.58,689.5 3898.45,689.5"
         style="fill:#2251aa;fill-opacity:1;fill-rule:nonzero;stroke:none"
         id="path100" />
      <path
         d="m 2356.25,2980.56 h 1646.54 c 35.13,0 62.09,-28.74 59.91,-63.87 L 3928.47,753.379 C 3926.28,718.25 3895.76,689.5 3860.63,689.5 H 2214.1 c -35.13,0 -62.09,28.75 -59.92,63.879 l 134.24,2163.311 c 2.18,35.13 32.71,63.87 67.83,63.87"
         style="fill:#406fbf;fill-opacity:1;fill-rule:nonzero;stroke:none"
         id="path102" />
      <path
         d="m 3846.05,787.09 -1602.62,19.219 1.32,21.211 c 524.94,0 1049.9,0 1574.84,0 88.52,810.51 116.31,1251.98 128.7,2054.78 h 27.77 L 3846.05,787.09"
         style="fill:#2251aa;fill-opacity:1;fill-rule:nonzero;stroke:none"
         id="path104" />
      <path
         d="m 2196.61,827.52 c 540.99,0 1081.99,0 1622.98,0 89.45,819.06 116.89,1261.25 129.09,2080.31 -540.99,0 -1081.99,0 -1622.99,0 -12.19,-819.06 -39.63,-1261.25 -129.08,-2080.31"
         style="fill:#ffffff;fill-opacity:1;fill-rule:nonzero;stroke:none"
         id="path106" />
      <path
         d="M 3754.85,2338.09 H 3475.4 c -5.69,0 -11.13,2.35 -15.03,6.5 -3.91,4.15 -5.92,9.73 -5.57,15.41 l 17.35,279.44 c 0.68,10.88 9.7,19.36 20.59,19.36 h 279.46 c 5.69,0 11.13,-2.35 15.03,-6.5 3.9,-4.15 5.91,-9.73 5.56,-15.41 l -17.34,-279.45 c -0.68,-10.88 -9.7,-19.35 -20.6,-19.35 m -242.71,279.44 -14.79,-238.17 h 238.11 l 14.78,238.17 h -238.1"
         style="fill:#b8d2ef;fill-opacity:1;fill-rule:nonzero;stroke:none"
         id="path108" />
      <path
         d="m 3728.44,1912.42 h -279.45 c -5.69,0 -11.13,2.36 -15.03,6.51 -3.9,4.15 -5.91,9.72 -5.56,15.41 l 17.33,279.45 c 0.69,10.88 9.7,19.36 20.6,19.36 h 279.45 c 5.69,0 11.13,-2.36 15.03,-6.51 3.91,-4.15 5.92,-9.73 5.57,-15.41 l -17.35,-279.45 c -0.68,-10.88 -9.69,-19.36 -20.59,-19.36 m -242.72,279.46 -14.77,-238.19 h 238.09 l 14.79,238.19 h -238.11"
         style="fill:#b8d2ef;fill-opacity:1;fill-rule:nonzero;stroke:none"
         id="path110" />
      <path
         d="m 3702.03,1486.77 h -279.45 c -5.7,0 -11.13,2.35 -15.03,6.5 -3.91,4.15 -5.92,9.73 -5.57,15.41 l 17.35,279.46 c 0.68,10.88 9.69,19.35 20.59,19.35 h 279.44 c 5.7,0 11.14,-2.35 15.03,-6.5 3.91,-4.15 5.92,-9.73 5.57,-15.41 l -17.33,-279.46 c -0.69,-10.87 -9.7,-19.35 -20.6,-19.35 m -242.71,279.45 -14.79,-238.18 h 238.11 l 14.77,238.18 h -238.09"
         style="fill:#b8d2ef;fill-opacity:1;fill-rule:nonzero;stroke:none"
         id="path112" />
      <path
         d="m 3675.62,1061.11 h -279.45 c -5.69,0 -11.13,2.36 -15.03,6.51 -3.9,4.15 -5.92,9.73 -5.56,15.41 l 17.33,279.45 c 0.68,10.88 9.7,19.36 20.6,19.36 h 279.45 c 5.69,0 11.13,-2.36 15.03,-6.51 3.9,-4.15 5.92,-9.72 5.56,-15.41 l -17.34,-279.45 c -0.68,-10.88 -9.7,-19.36 -20.59,-19.36 m -242.72,279.46 -14.78,-238.19 h 238.1 l 14.79,238.19 H 3432.9"
         style="fill:#b8d2ef;fill-opacity:1;fill-rule:nonzero;stroke:none"
         id="path114" />
      <path
         d="m 3231.7,2534.99 h -632.88 c -19.21,0 -33.96,15.72 -32.77,34.93 1.2,19.21 17.89,34.93 37.1,34.93 h 632.89 c 19.21,0 33.96,-15.72 32.76,-34.93 -1.19,-19.21 -17.88,-34.93 -37.1,-34.93"
         style="fill:#b8d2ef;fill-opacity:1;fill-rule:nonzero;stroke:none"
         id="path116" />
      <path
         d="M 3222.84,2392.03 H 2710.3 c -19.22,0 -33.96,15.71 -32.77,34.93 1.2,19.21 17.89,34.93 37.1,34.93 h 512.54 c 19.21,0 33.96,-15.72 32.76,-34.93 -1.19,-19.22 -17.88,-34.93 -37.09,-34.93"
         style="fill:#b8d2ef;fill-opacity:1;fill-rule:nonzero;stroke:none"
         id="path118" />
      <path
         d="m 3196.42,1966.38 h -632.88 c -19.21,0 -33.96,15.71 -32.77,34.93 1.19,19.21 17.89,34.92 37.1,34.92 h 632.89 c 19.21,0 33.95,-15.71 32.76,-34.92 -1.19,-19.22 -17.88,-34.93 -37.1,-34.93"
         style="fill:#b8d2ef;fill-opacity:1;fill-rule:nonzero;stroke:none"
         id="path120" />
      <path
         d="m 3205.29,2109.34 h -512.54 c -19.21,0 -33.95,15.72 -32.76,34.93 1.2,19.21 17.89,34.93 37.1,34.93 h 512.54 c 19.21,0 33.95,-15.72 32.76,-34.93 -1.19,-19.21 -17.88,-34.93 -37.1,-34.93"
         style="fill:#b8d2ef;fill-opacity:1;fill-rule:nonzero;stroke:none"
         id="path122" />
      <path
         d="M 3178.88,1683.68 H 2546 c -19.22,0 -33.96,15.72 -32.77,34.93 1.19,19.21 17.89,34.94 37.1,34.94 h 632.89 c 19.21,0 33.95,-15.73 32.76,-34.94 -1.19,-19.21 -17.88,-34.93 -37.1,-34.93"
         style="fill:#b8d2ef;fill-opacity:1;fill-rule:nonzero;stroke:none"
         id="path124" />
      <path
         d="m 3170.01,1540.72 h -254.65 c -19.21,0 -33.95,15.72 -32.76,34.93 1.19,19.21 17.88,34.93 37.1,34.93 h 254.65 c 19.21,0 33.95,-15.72 32.76,-34.93 -1.19,-19.21 -17.89,-34.93 -37.1,-34.93"
         style="fill:#b8d2ef;fill-opacity:1;fill-rule:nonzero;stroke:none"
         id="path126" />
      <path
         d="m 2791.77,1540.72 h -134.3 c -19.21,0 -33.95,15.72 -32.76,34.93 1.19,19.21 17.88,34.93 37.1,34.93 h 134.3 c 19.21,0 33.95,-15.72 32.76,-34.93 -1.19,-19.21 -17.88,-34.93 -37.1,-34.93"
         style="fill:#b8d2ef;fill-opacity:1;fill-rule:nonzero;stroke:none"
         id="path128" />
      <path
         d="m 3152.47,1258.03 h -632.89 c -19.21,0 -33.95,15.72 -32.76,34.93 1.19,19.21 17.89,34.93 37.1,34.93 h 632.88 c 19.22,0 33.96,-15.72 32.76,-34.93 -1.19,-19.21 -17.88,-34.93 -37.09,-34.93"
         style="fill:#b8d2ef;fill-opacity:1;fill-rule:nonzero;stroke:none"
         id="path130" />
      <path
         d="m 3143.6,1115.07 h -512.54 c -19.21,0 -33.96,15.71 -32.76,34.92 1.19,19.22 17.88,34.93 37.1,34.93 h 512.53 c 19.21,0 33.96,-15.71 32.77,-34.93 -1.19,-19.21 -17.89,-34.92 -37.1,-34.92"
         style="fill:#b8d2ef;fill-opacity:1;fill-rule:nonzero;stroke:none"
         id="path132" />
      <path
         d="m 3601.13,2414.57 c -4.01,0 -8.06,1.17 -11.62,3.6 l -107.67,73.56 c -9.41,6.43 -11.83,19.26 -5.39,28.67 6.41,9.41 19.22,11.84 28.67,5.39 l 91.99,-62.84 c 33.57,40.51 129.4,150.36 209.1,185.9 10.36,4.63 22.6,-0.03 27.25,-10.45 4.64,-10.4 -0.04,-22.61 -10.45,-27.25 -87.01,-38.78 -204.47,-187.2 -205.65,-188.7 -4.05,-5.15 -10.09,-7.88 -16.23,-7.88"
         style="fill:#406fbf;fill-opacity:1;fill-rule:nonzero;stroke:none"
         id="path134" />
      <path
         d="m 3550.97,1997.18 c -5.17,0 -10.33,1.93 -14.32,5.78 l -93.73,90.35 c -8.2,7.91 -8.45,20.97 -0.54,29.17 7.92,8.2 20.98,8.43 29.17,0.54 l 79.8,-76.92 c 39.45,35.29 150.16,129.35 233.57,152.16 10.99,3.02 22.34,-3.47 25.34,-14.46 3.01,-10.99 -3.46,-22.33 -14.46,-25.34 -91.22,-24.94 -229.3,-154.36 -230.68,-155.67 -3.98,-3.74 -9.07,-5.61 -14.15,-5.61"
         style="fill:#406fbf;fill-opacity:1;fill-rule:nonzero;stroke:none"
         id="path136" />
      <path
         d="m 3466.83,2907.83 c -2.21,0 -4.43,0 -6.64,0 0.15,0.85 0.28,1.69 0.4,2.54 l 7.61,56.39 -0.33,-48.13 c -0.03,-3.69 -0.38,-7.29 -1.04,-10.8"
         style="fill:#2251aa;fill-opacity:1;fill-rule:nonzero;stroke:none"
         id="path138" />
      <path
         d="m 3426.12,2861.13 c 17.27,9.71 30.53,26.96 34.07,46.7 2.21,0 4.43,0 6.64,0 -4.1,-21.9 -19.97,-39.74 -40.71,-46.7"
         style="fill:#8c8f8f;fill-opacity:1;fill-rule:nonzero;stroke:none"
         id="path140" />
      <path
         d="m 2915.5,3081.74 h 510.63 c 31.67,0 54.09,-25.92 49.82,-57.6 l -15.36,-113.77 c -4.28,-31.68 -33.7,-57.6 -65.38,-57.6 h -510.62 c -31.68,0 -54.09,25.92 -49.82,57.6 l 15.36,113.77 c 4.28,31.68 33.7,57.6 65.37,57.6"
         style="fill:#406fbf;fill-opacity:1;fill-rule:nonzero;stroke:none"
         id="path142" />
      <path
         d="m 3395.21,2852.77 h -510.62 c -29.08,0 -50.35,21.84 -50.34,49.93 0,2.51 0.17,5.07 0.52,7.67 l 15.36,113.77 c 4.28,31.68 33.7,57.6 65.37,57.6 h 510.63 c 29.07,0 50.35,-21.84 50.34,-49.93 0,-2.51 -0.17,-5.07 -0.52,-7.67 l -15.36,-113.77 c -4.28,-31.68 -33.7,-57.6 -65.38,-57.6 m -211.86,204.89 c -8.55,0 -15.47,-6.93 -15.47,-15.47 0,-8.55 6.92,-15.47 15.47,-15.47 h 229.52 c 8.55,0 15.47,6.92 15.47,15.47 0,8.54 -6.92,15.47 -15.47,15.47 h -229.52 m -101.15,0 c -8.55,0 -15.47,-6.93 -15.47,-15.47 0,-8.55 6.92,-15.47 15.47,-15.47 h 24.22 c 8.54,0 15.46,6.92 15.46,15.47 0,8.54 -6.92,15.47 -15.46,15.47 h -24.22"
         style="fill:#a4c3e9;fill-opacity:1;fill-rule:nonzero;stroke:none"
         id="path144" />
      <path
         d="m 3412.87,3026.72 h -229.52 c -8.55,0 -15.47,6.92 -15.47,15.47 0,8.54 6.92,15.47 15.47,15.47 h 229.52 c 8.55,0 15.47,-6.93 15.47,-15.47 0,-8.55 -6.92,-15.47 -15.47,-15.47"
         style="fill:#cfe0f5;fill-opacity:1;fill-rule:nonzero;stroke:none"
         id="path146" />
      <path
         d="m 3106.42,3026.72 h -24.22 c -8.55,0 -15.47,6.92 -15.47,15.47 0,8.54 6.92,15.47 15.47,15.47 h 24.22 c 8.54,0 15.46,-6.93 15.46,-15.47 0,-8.55 -6.92,-15.47 -15.46,-15.47"
         style="fill:#cfe0f5;fill-opacity:1;fill-rule:nonzero;stroke:none"
         id="path148" />
      <path
         d="m 1694.61,809.07 98.7,-18.828 233.32,1097.218 -144.91,27.65 -187.11,-1106.04"
         style="fill:#406fbf;fill-opacity:1;fill-rule:nonzero;stroke:none"
         id="path150" />
      <path
         d="m 2041.52,2649.25 118.16,38.82 8.19,42.93 -110.11,3.39 -16.24,-85.14"
         style="fill:#17282f;fill-opacity:1;fill-rule:nonzero;stroke:none"
         id="path152" />
      <path
         d="m 2038.54,2674.23 134.59,43.77 -138.32,-787.62 -144.9,27.65 148.63,716.2"
         style="fill:#406fbf;fill-opacity:1;fill-rule:nonzero;stroke:none"
         id="path154" />
      <path
         d="m 1887.61,1913.99 133.13,-25.41 8.19,42.92 -133.13,25.41 -8.19,-42.92"
         style="fill:#17282f;fill-opacity:1;fill-rule:nonzero;stroke:none"
         id="path156" />
      <path
         d="m 1712.35,679.211 c -1.24,-6.5 1.48,-12.492 6.08,-13.359 4.6,-0.883 9.33,3.679 10.57,10.187 1.24,6.492 -1.48,12.481 -6.08,13.359 -4.59,0.872 -9.32,-3.687 -10.57,-10.187"
         style="fill:#406fbf;fill-opacity:1;fill-rule:nonzero;stroke:none"
         id="path158" />
      <path
         d="m 1705.6,678.391 29.38,-5.61 58.33,117.461 -98.7,18.828 10.99,-130.679"
         style="fill:#17282f;fill-opacity:1;fill-rule:nonzero;stroke:none"
         id="path160" />
      <path
         d="m 1883.39,2157.44 c -1.75,0 -3.55,0.38 -5.25,1.17 -6.23,2.9 -8.92,10.32 -6.02,16.55 61.96,132.84 112.28,410.43 119.04,476.44 1.99,19.47 14.42,36.4 32.43,44.15 l 32.7,14.09 c 6.32,2.73 13.64,-0.17 16.36,-6.49 2.72,-6.32 -0.19,-13.64 -6.5,-16.36 l -32.71,-14.1 c -9.73,-4.19 -16.44,-13.32 -17.51,-23.83 -7.1,-69.32 -57.07,-346.83 -121.25,-484.43 -2.11,-4.52 -6.6,-7.19 -11.29,-7.19"
         style="fill:#17282f;fill-opacity:1;fill-rule:nonzero;stroke:none"
         id="path162" />
      <path
         d="m 1422.73,2687.7 c -24.92,-42.66 -50.1,-87.94 -73.72,-132.37 -11.73,-22.38 -23.09,-44.85 -34.05,-67.35 -10.53,-22.6 -21.04,-45.18 -30.04,-67.79 l -1.7,-4.12 -0.21,-0.09 c -0.22,-0.24 -0.5,-1.01 -0.72,-2.1 -0.52,-2.17 -0.72,-5.68 -0.67,-9.79 0.11,-8.29 1.75,-18.7 4.22,-29.35 5.17,-21.49 12.8,-44.71 21.96,-67.58 8.9,-23.08 19.12,-46.19 29.71,-69.32 10.35,-23.16 21.94,-46.46 32.92,-69.02 l -47.49,-32.44 c -35.39,41.53 -66.6,84.65 -94.18,132.68 -13.43,24.19 -26.47,49.11 -36.43,77.65 -4.97,14.35 -9.46,29.46 -12.01,47.17 -1.27,8.88 -1.85,18.48 -1.19,29.31 0.36,5.41 1.03,11.12 2.38,17.23 0.55,2.93 1.57,6.24 2.44,9.32 l 1.62,5.11 c 16.38,53.32 37.39,103.42 60.57,152.11 23.48,48.81 48.59,95.17 77.85,141.82 l 98.74,-61.08"
         style="fill:#f9a8b3;fill-opacity:1;fill-rule:nonzero;stroke:none"
         id="path164" />
      <path
         d="m 1363.51,2183.11 44.67,-34.79 -68.25,-56.37 c 0,0 -31.15,30.11 -26.34,66.91 l 49.92,24.25"
         style="fill:#f9a8b3;fill-opacity:1;fill-rule:nonzero;stroke:none"
         id="path166" />
      <path
         d="m 1426.38,2097.52 -45.46,-58.51 -40.99,52.94 68.25,56.37 18.2,-50.8"
         style="fill:#f9a8b3;fill-opacity:1;fill-rule:nonzero;stroke:none"
         id="path168" />
      <path
         d="m 1680.42,3104.53 c 1.24,-6.05 5.44,-10.3 9.4,-9.5 3.95,0.8 6.17,6.37 4.94,12.42 -1.23,6.06 -5.44,10.32 -9.4,9.5 -3.96,-0.8 -6.17,-6.36 -4.94,-12.42"
         style="fill:#17282f;fill-opacity:1;fill-rule:nonzero;stroke:none"
         id="path170" />
      <path
         d="m 1685.3,3094.11 c 0,0 20.87,-32.13 39.45,-45.91 -8.68,-12.16 -27.82,-11.29 -27.82,-11.29 l -11.63,57.2"
         style="fill:#f46878;fill-opacity:1;fill-rule:nonzero;stroke:none"
         id="path172" />
      <path
         d="m 1651.42,3133.65 -2.46,0.97 c -1.47,1.36 -1.57,3.65 -0.2,5.13 13.62,14.73 30.16,12.12 30.87,12 1.97,-0.33 3.3,-2.21 2.96,-4.19 -0.33,-1.96 -2.23,-3.28 -4.16,-2.97 -0.55,0.09 -13.47,1.98 -24.35,-9.77 -0.71,-0.78 -1.68,-1.17 -2.66,-1.17"
         style="fill:#17282f;fill-opacity:1;fill-rule:nonzero;stroke:none"
         id="path174" />
      <path
         d="m 1507.95,3019.38 c 10.99,-56.05 21.95,-158.72 -17.26,-196.12 0,0 15.32,-56.84 119.45,-56.84 114.49,0 54.72,56.84 54.72,56.84 -62.49,14.92 -60.88,61.28 -50,104.83 l -106.91,91.29"
         style="fill:#f9a8b3;fill-opacity:1;fill-rule:nonzero;stroke:none"
         id="path176" />
      <path
         d="m 1468.54,2819.05 c -8.33,19.78 9.51,79.77 28.5,85.63 20.88,6.46 100.29,2.85 139.7,-13.63 28.02,-28.4 36.12,-87.38 36.12,-87.38 l -204.32,15.38"
         style="fill:#17282f;fill-opacity:1;fill-rule:nonzero;stroke:none"
         id="path178" />
      <path
         d="m 1153.94,212.609 2.13,-0.699 c 1.44,-0.691 2.34,-1.699 2.76,-3.101 0.96,-3.258 -0.24,-4.297 -0.64,-4.629 -4.12,-3.508 -19.42,-0.27 -30.19,4.031 7.31,2.578 19.13,5.871 25.94,4.398 z m -12.47,-12.238 c 7.69,-1.672 15.38,-2.101 19.07,1.051 1.55,1.32 3.12,3.848 1.76,8.418 -0.71,2.41 -2.29,4.199 -4.67,5.351 -10.34,4.93 -34.11,-4.761 -35.12,-5.171 l -1.12,-1.629 1.02,-1.68 c 3.64,-1.762 11.35,-4.672 19.06,-6.34"
         style="fill:#406fbf;fill-opacity:1;fill-rule:nonzero;stroke:none"
         id="path180" />
      <path
         d="m 1144.5,233.641 0.79,-0.219 c 2.24,-0.781 2.21,-1.883 2.2,-2.34 -0.13,-5.141 -12.35,-15.473 -21.32,-19.652 2.24,6.121 7.36,18.191 13.92,21.539 1.5,0.773 2.95,1 4.41,0.672 z m -21.68,-27.082 0.89,0.043 c 8.66,2.527 27.19,15.687 27.41,24.378 0.04,1.571 -0.5,4.43 -4.64,5.872 -2.68,0.929 -5.38,0.707 -8.04,-0.653 -10.24,-5.219 -16.71,-26.429 -16.98,-27.34 l 0.45,-1.8 0.91,-0.5"
         style="fill:#406fbf;fill-opacity:1;fill-rule:nonzero;stroke:none"
         id="path182" />
      <path
         d="m 1706.58,202.371 c 1.28,0 2.46,-0.121 3.51,-0.422 1.67,-0.449 2.83,-1.277 3.55,-2.527 1.29,-2.25 0.82,-3.371 0.35,-4.012 -3.56,-4.949 -22.92,-5.07 -37.16,-3.058 7.1,3.648 20.8,10.019 29.75,10.019 z m -12.15,-14.851 c 9.83,0 19.33,1.351 22.51,5.769 1.12,1.543 1.99,4.172 -0.15,7.93 -1.2,2.101 -3.14,3.531 -5.75,4.242 -12.75,3.469 -39.52,-11.789 -40.65,-12.441 l -0.89,-1.872 1.44,-1.476 c 4.89,-0.981 14.33,-2.152 23.49,-2.152"
         style="fill:#406fbf;fill-opacity:1;fill-rule:nonzero;stroke:none"
         id="path184" />
      <path
         d="m 1689.98,220.68 1.09,-0.039 c 3.27,-0.34 3.48,-1.629 3.54,-2.051 0.84,-5.199 -11.6,-18.219 -21.04,-23.879 0.99,6.019 3.72,18.371 10.12,23.621 1.92,1.578 3.99,2.348 6.29,2.348 z m -18.69,-31.051 0.75,0.172 c 9.24,4.148 27.55,20.711 26.15,29.371 -0.32,2.027 -1.77,4.558 -6.75,5.066 -3.73,0.383 -7.09,-0.668 -10.06,-3.109 -9.74,-8 -11.81,-28.637 -11.89,-29.508 l 0.74,-1.652 1.06,-0.34"
         style="fill:#406fbf;fill-opacity:1;fill-rule:nonzero;stroke:none"
         id="path186" />
      <path
         d="m 1587.06,191.449 h 76.6 l 7.63,177.391 h -76.6 l -7.63,-177.391"
         style="fill:#f9a8b3;fill-opacity:1;fill-rule:nonzero;stroke:none"
         id="path188" />
      <path
         d="m 1034.26,226.922 76.92,-16.223 54.27,165.231 -76.91,16.211 -54.28,-165.219"
         style="fill:#f9a8b3;fill-opacity:1;fill-rule:nonzero;stroke:none"
         id="path190" />
      <path
         d="m 1119.49,218.219 -84.1,18.211 c -3.07,0.66 -6.18,-0.891 -7.48,-3.731 l -29.203,-63.34 c -3.027,-6.578 0.984,-14.281 8.083,-15.699 29.47,-5.851 44.11,-7.211 81.1,-15.219 22.75,-4.929 74.12,-17.441 105.54,-24.25 30.74,-6.652 42.26,23.379 30,28.981 -54.95,25.109 -77.91,47.207 -92.78,67.816 -2.68,3.711 -6.68,6.262 -11.16,7.231"
         style="fill:#17282f;fill-opacity:1;fill-rule:nonzero;stroke:none"
         id="path192" />
      <path
         d="m 1663.16,200.309 -83.65,0.011 c -3.14,0 -5.85,-2.172 -6.53,-5.23 L 1557.85,127 c -1.57,-7.059 3.79,-13.75 11.02,-13.629 30.18,0.52 73.78,2.289 111.71,2.289 44.35,0 27.13,-2.43 79.13,-2.43 31.45,0 40.18,31.801 27.01,34.68 -59.92,13.11 -53.33,14.512 -105.11,46.442 -5.63,3.468 -11.84,5.957 -18.45,5.957"
         style="fill:#17282f;fill-opacity:1;fill-rule:nonzero;stroke:none"
         id="path194" />
      <path
         d="m 1353.54,2805.95 c -71.79,-16.46 -130.99,-199.74 -130.99,-199.74 l 144.17,-109.89 c 0,0 52.92,49.89 76.47,141.57 24.68,96.06 -16.24,184.88 -89.65,168.06"
         style="fill:#17282f;fill-opacity:1;fill-rule:nonzero;stroke:none"
         id="path196" />
      <path
         d="m 1366.69,2496.3 -4.7,3.62 4.73,-3.6 c -0.02,-0.01 -0.03,-0.02 -0.03,-0.02 m 44.32,60.7 c 11.97,21.56 23.89,48.64 32.18,80.89 1.47,5.75 2.72,11.47 3.73,17.14 l 0.06,-0.03 c -1.05,-5.62 -2.3,-11.37 -3.76,-17.1 -8.29,-32.25 -20.22,-59.34 -32.21,-80.9"
         style="fill:#c3c5c2;fill-opacity:1;fill-rule:nonzero;stroke:none"
         id="path198" />
      <path
         d="m 1366.72,2496.32 -4.73,3.6 -1.66,1.29 c 3.02,61.1 15.74,131.37 54.74,169.95 l 31.85,-16.13 c -1.01,-5.67 -2.26,-11.39 -3.73,-17.14 -8.29,-32.25 -20.21,-59.33 -32.18,-80.89 -21.63,-38.92 -43.43,-59.85 -44.29,-60.68"
         style="fill:#111d23;fill-opacity:1;fill-rule:nonzero;stroke:none"
         id="path200" />
      <path
         d="m 1782.68,2802 c 0,0 81.53,-92.09 4.54,-662.09 -123.46,0 -349.64,0 -409.72,0 -2.82,62.89 36.7,369.7 -23.96,666.04 0,0 70.23,14.09 137.15,17.31 52.35,2.53 128.14,4.2 174.17,0 60.67,-5.53 117.82,-21.26 117.82,-21.26"
         style="fill:#17282f;fill-opacity:1;fill-rule:nonzero;stroke:none"
         id="path202" />
      <path
         d="m 1667.36,277.352 v 0 l 0.7,16.328 -0.7,-16.328 m -76.6,0 h -0.04 l 3.92,91.437 h 0.05 l -3.93,-91.437"
         style="fill:#c3c5c2;fill-opacity:1;fill-rule:nonzero;stroke:none"
         id="path204" />
      <path
         d="m 1667.36,277.352 h -76.6 l 3.93,91.437 h 76.58 l -3.21,-75.109 -0.7,-16.328"
         style="fill:#d8898c;fill-opacity:1;fill-rule:nonzero;stroke:none"
         id="path206" />
      <path
         d="m 1060.54,306.922 -0.05,0.019 5.61,17.051 0.05,-0.012 -5.61,-17.058"
         style="fill:#c3c5c2;fill-opacity:1;fill-rule:nonzero;stroke:none"
         id="path208" />
      <path
         d="m 1137.44,290.719 -76.9,16.203 5.61,17.058 76.76,-16.621 -5.47,-16.64"
         style="fill:#d8898c;fill-opacity:1;fill-rule:nonzero;stroke:none"
         id="path210" />
      <path
         d="m 1475.87,3076.32 c 19.68,-73.43 27.47,-117.4 72.78,-147.94 68.16,-45.93 153.02,6.79 155.68,84.61 2.39,70.06 -30.19,178.38 -108.99,193.17 -77.64,14.58 -139.15,-56.4 -119.47,-129.84"
         style="fill:#f9a8b3;fill-opacity:1;fill-rule:nonzero;stroke:none"
         id="path212" />
      <path
         d="m 1549.07,2936.89 h -0.98 c -24.03,-0.03 -46.64,11.34 -60.66,30.86 -23.04,32.05 -55.31,87.74 -59.01,152.04 29.16,30.83 138.91,51.12 187.78,40 40.72,-9.28 34.8,-125.22 -3.72,-187.84 -13.48,-21.92 -37.68,-34.95 -63.41,-35.06"
         style="fill:#f9a8b3;fill-opacity:1;fill-rule:nonzero;stroke:none"
         id="path214" />
      <path
         d="m 1548,2936.89 c -24,0 -46.57,11.37 -60.57,30.86 -23.04,32.05 -55.31,87.74 -59.01,152.04 23.65,25 100.33,43.08 154.52,43.08 12.63,0 24.03,-0.98 33.26,-3.08 19.12,-4.36 27.96,-32.25 27.96,-67.1 0.01,-39.33 -11.25,-87.53 -31.68,-120.74 -13.48,-21.92 -37.68,-34.95 -63.41,-35.06 h -0.98 c -0.03,0 -0.06,0 -0.09,0"
         style="fill:#434249;fill-opacity:1;fill-rule:nonzero;stroke:none"
         id="path216" />
      <path
         d="m 1472.86,3093.67 c -34.51,2.47 -54.03,24.18 -60.28,42.78 -8.72,25.97 0.56,80.84 52.78,82.5 52.22,1.67 57.78,31.39 41.67,37.5 34.17,-2.5 23.33,-26.39 23.33,-26.39 9.17,-0.56 17.78,24.44 69.72,22.5 51.95,-1.94 77.78,9.17 71.12,20.83 24.72,-5 17.77,-35 -3.06,-43.05 0,0 49.44,-37.5 61.11,-16.95 8.33,-15 -8.05,-32.94 -70.55,-24.8 24.93,-34.85 -34.09,-27.03 -59.23,-42.87 -25.14,-15.83 -92.1,-54.52 -126.61,-52.05"
         style="fill:#17282f;fill-opacity:1;fill-rule:nonzero;stroke:none"
         id="path218" />
      <path
         d="m 1600.81,3079.77 c 5,-19.28 17.66,-35.85 30.91,-45.72 19.94,-14.82 34.82,-0.23 33.41,22.33 -1.28,20.31 -13.19,52.49 -35.18,58.5 -21.66,5.94 -34.86,-13.08 -29.14,-35.11"
         style="fill:#f9a8b3;fill-opacity:1;fill-rule:nonzero;stroke:none"
         id="path220" />
      <path
         d="m 1641.87,2139.91 c 0,0 -86.92,-585.39 -134.65,-804.7 C 1454.96,1095.05 1174.73,300.469 1174.73,300.469 L 1037.6,330.16 c 0,0 195.96,647.531 239.82,983.28 33.69,257.9 100.08,826.47 100.08,826.47 h 264.37"
         style="fill:#17282f;fill-opacity:1;fill-rule:nonzero;stroke:none"
         id="path222" />
      <path
         d="m 1207.56,346.25 -25.56,-49.59 -154.27,33.399 13,46.382 166.83,-30.191"
         style="fill:#406fbf;fill-opacity:1;fill-rule:nonzero;stroke:none"
         id="path224" />
      <path
         d="m 1509.15,1343.99 c 0,0.04 -0.01,0.09 -0.01,0.14 0.27,1.25 0.54,2.51 0.81,3.79 h 0.03 c -0.27,-1.32 -0.55,-2.64 -0.83,-3.93"
         style="fill:#9fa1a1;fill-opacity:1;fill-rule:nonzero;stroke:none"
         id="path226" />
      <path
         d="m 1509.98,1347.92 h -0.03 c 1.91,9.08 3.89,18.69 5.91,28.77 h 0.03 c -2.02,-10.09 -3.99,-19.69 -5.91,-28.77"
         style="fill:#929494;fill-opacity:1;fill-rule:nonzero;stroke:none"
         id="path228" />
      <path
         d="m 1515.89,1376.69 h -0.03 c 9.72,48.48 20.57,107.94 31.71,172.04 v 0 c -11.13,-64.12 -21.97,-123.56 -31.68,-172.04"
         style="fill:#9fa1a1;fill-opacity:1;fill-rule:nonzero;stroke:none"
         id="path230" />
      <path
         d="m 1547.57,1548.73 v 0 c 0.04,0.23 0.08,0.46 0.12,0.69 -0.04,-0.22 -0.08,-0.46 -0.12,-0.69"
         style="fill:#9fa1a1;fill-opacity:1;fill-rule:nonzero;stroke:none"
         id="path232" />
      <path
         d="m 1509.14,1344.13 c -12.09,192.83 -22.69,567.51 77.79,587.21 2.67,0.53 5.24,0.78 7.72,0.78 5.38,0 10.34,-1.21 14.91,-3.5 -17.66,-113.38 -40.31,-255.01 -61.87,-379.2 -0.04,-0.23 -0.08,-0.46 -0.12,-0.69 -11.14,-64.1 -21.99,-123.56 -31.71,-172.04 -2.02,-10.08 -4,-19.69 -5.91,-28.77 -0.27,-1.28 -0.54,-2.54 -0.81,-3.79"
         style="fill:#0f191d;fill-opacity:1;fill-rule:nonzero;stroke:none"
         id="path234" />
      <path
         d="m 1787.22,2139.91 c 0,0 10.54,-572.72 2.21,-806.32 -8.66,-242.96 -93.53,-1038.531 -93.53,-1038.531 h -129.76 c 0,0 -4.77,781.371 -10.54,1019.991 -6.29,260.15 -37.7,824.86 -37.7,824.86 h 269.32"
         style="fill:#17282f;fill-opacity:1;fill-rule:nonzero;stroke:none"
         id="path236" />
      <path
         d="m 1720.87,346.75 -7.32,-53.879 H 1555.7 l -4.27,48.09 169.44,5.789"
         style="fill:#406fbf;fill-opacity:1;fill-rule:nonzero;stroke:none"
         id="path238" />
      <path
         d="m 1784.56,2812.16 c 20.1,-8.38 39.39,-23.28 45.18,-72.73 5.57,-47.55 -5.22,-463.83 -18.27,-596.76 -0.91,-9.22 -7.62,-17.84 -16.86,-18.24 -81.93,-3.55 -335.64,30.74 -421.25,15.67 -9.82,-1.73 -18.61,9.18 -18.1,19.2 6.74,129.54 -2.95,338.46 -18.79,471.25 -10.34,86.66 -10.42,177.34 62.37,192.76 53.79,11.4 307.51,21.43 385.72,-11.15"
         style="fill:#406fbf;fill-opacity:1;fill-rule:nonzero;stroke:none"
         id="path240" />
      <path
         d="m 1816.29,2697.07 c 4.57,-21.95 9.54,-45.9 15.01,-68.69 5.6,-22.98 11.19,-45.9 17.56,-68.36 6.24,-22.48 13,-44.61 20.68,-65.7 7.5,-21.02 16.02,-41.46 25.51,-57.92 4.59,-8.1 9.54,-15.39 13.37,-19.59 1.87,-2.13 3.38,-3.45 3.73,-3.91 0.05,-0.13 -0.13,-0.87 1.99,-1.53 3.54,-1.53 11.35,-2.84 20.26,-2.54 8.98,0.28 19.13,1.43 29.62,3.18 42.1,7.67 88.6,23.22 132.6,39.03 l 29.11,-49.6 c -41.61,-32.28 -84.72,-59.05 -137.26,-78.41 -13.21,-4.78 -27.16,-8.86 -42.6,-11.51 -15.45,-2.53 -32.56,-4.31 -53.13,-0.83 -9.99,1.58 -21.72,5.41 -32.5,11.05 -10.32,5.65 -18.48,12.07 -25.47,18.45 -13.93,12.86 -23.48,25.66 -32.06,38.28 -32.19,50.42 -49.17,99.25 -65.1,148.69 -7.53,24.7 -14.43,49.35 -20.16,74.22 -5.84,25.06 -11.24,49.18 -15.52,75.59 l 114.36,20.1"
         style="fill:#f9a8b3;fill-opacity:1;fill-rule:nonzero;stroke:none"
         id="path242" />
      <path
         d="m 1647.79,2727.1 c -62.22,-125.13 85.61,-266.52 85.61,-266.52 l 164.8,86.06 c 0,0 -17.41,106.81 -56.3,193.2 -48.03,106.73 -158.33,59.22 -194.11,-12.74"
         style="fill:#17282f;fill-opacity:1;fill-rule:nonzero;stroke:none"
         id="path244" />
      <path
         d="m 2081.39,2443.65 55.9,36.74 23.25,-83.62 c 0,0 -25.09,-29.26 -70.85,2.64 l -8.3,44.24"
         style="fill:#f9a8b3;fill-opacity:1;fill-rule:nonzero;stroke:none"
         id="path246" />
      <path
         d="m 2185.98,2446.58 -1.78,-17.54 c -0.86,-8.47 -4.95,-16.29 -11.43,-21.81 l -12.23,-10.46 -23.25,83.62 7.15,1.85 c 22.48,5.82 43.88,-12.55 41.54,-35.66"
         style="fill:#f9a8b3;fill-opacity:1;fill-rule:nonzero;stroke:none"
         id="path248" />
    </g>
  </g>
</svg>
